<svg width="384" height="176" viewBox="0 0 384 176" fill="none" xmlns="http://www.w3.org/2000/svg">
<path d="M14.5693 124.457V75.0455H0V59.7535H46.8615V75.0455H32.2922V124.457H14.5693Z" fill="#272343"/>
<path d="M100.232 59.7535L108.405 90.5142C108.76 91.7517 109.13 93.1955 109.515 94.8455C109.634 95.4348 109.797 96.2892 110.004 97.4089C110.211 98.4991 110.374 99.3683 110.492 100.016C110.907 98.1013 111.277 96.2008 111.603 94.3151C111.781 93.4017 112.092 92.1348 112.536 90.5142L120.176 59.7535H138.076L119.687 124.457H103.252L95.2125 96.8343C94.6499 94.7718 94.1761 92.8714 93.7911 91.133C93.7615 90.9562 93.6727 90.6026 93.5246 90.0723C93.3765 89.5419 93.2137 88.9084 93.036 88.1718C92.9768 88.3781 92.7695 89.2473 92.4141 90.7794C91.8811 93.1366 91.3629 95.1549 90.8595 96.8343L82.953 124.457H66.4737L48.1289 59.7535H66.0295L73.4919 90.691C73.7288 91.7223 74.0841 93.3281 74.5579 95.5084C75.0317 97.8066 75.3426 99.4272 75.4907 100.37C75.8756 98.5433 76.1718 97.2468 76.3791 96.4808C76.9121 94.0647 77.3711 92.1348 77.756 90.691L85.929 59.7535H100.232Z" fill="#272343"/>
<path d="M146.051 124.457L145.962 90.9562H139.255V79.8187H145.962V66.5156H161.642V79.8187H168.26V90.9562H161.642V124.457H146.051Z" fill="#272343"/>
<path d="M207.905 102.27C207.905 98.941 207.061 96.3187 205.373 94.4035C203.626 92.4883 201.346 91.5308 198.533 91.5308C195.631 91.5308 193.351 92.4883 191.692 94.4035C190.004 96.2598 189.161 98.8821 189.161 102.27C189.161 105.57 189.975 108.163 191.604 110.049C193.38 111.994 195.69 112.966 198.533 112.966C201.376 112.966 203.685 111.994 205.462 110.049C207.091 108.104 207.905 105.512 207.905 102.27ZM223.629 102.27C223.629 105.541 222.993 108.591 221.719 111.419C220.387 114.424 218.566 117.017 216.256 119.198C213.65 121.614 210.955 123.367 208.172 124.457C205.27 125.606 202.057 126.181 198.533 126.181C194.979 126.181 191.766 125.606 188.894 124.457C185.962 123.308 183.253 121.57 180.765 119.242C178.308 116.885 176.531 114.277 175.435 111.419C174.162 108.679 173.525 105.629 173.525 102.27C173.525 98.9999 174.162 95.9209 175.435 93.0334C176.62 90.1165 178.411 87.5236 180.81 85.2549C183.149 83.0156 185.844 81.2919 188.894 80.0839C191.796 78.9642 195.009 78.4044 198.533 78.4044C202.027 78.4044 205.24 78.9642 208.172 80.0839C211.222 81.2919 213.916 83.0156 216.256 85.2549C218.714 87.4647 220.535 90.0575 221.719 93.0334C222.993 95.9209 223.629 98.9999 223.629 102.27Z" fill="#272343"/>
<path d="M279.132 79.8187V102.624C279.132 107.721 278.747 111.434 277.977 113.762C277.148 116.178 275.756 118.358 273.801 120.303C271.936 122.247 269.478 123.72 266.428 124.722C263.526 125.695 260.032 126.181 255.945 126.181C251.888 126.181 248.438 125.695 245.596 124.722C242.664 123.779 240.147 122.306 238.045 120.303C236.12 118.476 234.758 116.325 233.958 113.85C233.159 111.552 232.759 107.81 232.759 102.624V79.8187H247.861V103.641C247.861 107.383 248.498 110.064 249.771 111.684C250.926 113.393 252.925 114.248 255.768 114.248C258.581 114.248 260.594 113.423 261.808 111.773C263.052 110.123 263.674 107.412 263.674 103.641V79.8187H279.132Z" fill="#272343"/>
<path d="M290.971 124.457V79.8187H305.895V90.3374C307.465 86.4776 309.552 83.6049 312.158 81.7191C314.853 79.804 318.096 78.8464 321.886 78.8464C322.745 78.8464 323.381 78.8758 323.796 78.9348C324.122 78.9642 324.418 78.9937 324.684 79.0232C324.951 79.0232 325.291 79.0526 325.706 79.1116L324.196 93.4312C323.1 93.0776 322.152 92.8272 321.353 92.6799C320.168 92.562 319.295 92.5031 318.732 92.5031C314.883 92.5031 311.907 93.6816 309.804 96.0388C307.731 98.3665 306.695 101.681 306.695 105.983V124.457H290.971Z" fill="#272343"/>
<path d="M308.333 70.8888C308.333 71.5371 308.074 72.1589 307.613 72.6173C307.152 73.0757 306.527 73.3332 305.876 73.3332C305.224 73.3332 304.599 73.0757 304.139 72.6173C303.678 72.1589 303.419 71.5371 303.419 70.8888C303.419 70.2405 303.678 69.6188 304.139 69.1603C304.599 68.7019 305.224 68.4443 305.876 68.4443C306.527 68.4443 307.152 68.7019 307.613 69.1603C308.074 69.6188 308.333 70.2405 308.333 70.8888Z" fill="#FFD803"/>
<path d="M308.333 132.489C308.333 133.137 308.074 133.759 307.613 134.218C307.152 134.676 306.527 134.933 305.876 134.933C305.224 134.933 304.599 134.676 304.139 134.218C303.678 133.759 303.419 133.137 303.419 132.489C303.419 131.841 303.678 131.219 304.139 130.76C304.599 130.302 305.224 130.045 305.876 130.045C306.527 130.045 307.152 130.302 307.613 130.76C308.074 131.219 308.333 131.841 308.333 132.489Z" fill="#FFD803"/>
<path d="M308.333 139.333C308.333 139.982 308.074 140.604 307.613 141.062C307.152 141.52 306.527 141.778 305.876 141.778C305.224 141.778 304.599 141.52 304.139 141.062C303.678 140.604 303.419 139.982 303.419 139.333C303.419 138.685 303.678 138.063 304.139 137.605C304.599 137.146 305.224 136.889 305.876 136.889C306.527 136.889 307.152 137.146 307.613 137.605C308.074 138.063 308.333 138.685 308.333 139.333Z" fill="#FFD803"/>
<path d="M308.333 146.178C308.333 146.826 308.074 147.448 307.613 147.906C307.152 148.365 306.527 148.622 305.876 148.622C305.224 148.622 304.599 148.365 304.139 147.906C303.678 147.448 303.419 146.826 303.419 146.178C303.419 145.529 303.678 144.908 304.139 144.449C304.599 143.991 305.224 143.733 305.876 143.733C306.527 143.733 307.152 143.991 307.613 144.449C308.074 144.908 308.333 145.529 308.333 146.178Z" fill="#FFD803"/>
<path d="M315.211 64.0444C315.211 64.6927 314.952 65.3145 314.492 65.7729C314.031 66.2313 313.406 66.4888 312.755 66.4888C312.103 66.4888 311.478 66.2313 311.017 65.7729C310.557 65.3145 310.298 64.6927 310.298 64.0444C310.298 63.3961 310.557 62.7744 311.017 62.316C311.478 61.8575 312.103 61.5999 312.755 61.5999C313.406 61.5999 314.031 61.8575 314.492 62.316C314.952 62.7744 315.211 63.3961 315.211 64.0444Z" fill="#FFD803"/>
<path d="M315.211 70.8888C315.211 71.5371 314.952 72.1589 314.492 72.6173C314.031 73.0757 313.406 73.3332 312.755 73.3332C312.103 73.3332 311.478 73.0757 311.017 72.6173C310.557 72.1589 310.298 71.5371 310.298 70.8888C310.298 70.2405 310.557 69.6188 311.017 69.1604C311.478 68.7019 312.103 68.4443 312.755 68.4443C313.406 68.4443 314.031 68.7019 314.492 69.1604C314.952 69.6188 315.211 70.2405 315.211 70.8888Z" fill="#FFD803"/>
<path d="M315.255 132.489C315.255 133.137 314.997 133.759 314.536 134.218C314.075 134.676 313.45 134.933 312.799 134.933C312.147 134.933 311.522 134.676 311.062 134.218C310.601 133.759 310.342 133.137 310.342 132.489C310.342 131.841 310.601 131.219 311.062 130.76C311.522 130.302 312.147 130.045 312.799 130.045C313.45 130.045 314.075 130.302 314.536 130.76C314.997 131.219 315.255 131.841 315.255 132.489Z" fill="#FFD803"/>
<path d="M315.211 139.333C315.211 139.982 314.952 140.604 314.492 141.062C314.031 141.52 313.406 141.778 312.755 141.778C312.103 141.778 311.478 141.52 311.017 141.062C310.557 140.604 310.298 139.982 310.298 139.333C310.298 138.685 310.557 138.063 311.017 137.605C311.478 137.146 312.103 136.889 312.755 136.889C313.406 136.889 314.031 137.146 314.492 137.605C314.952 138.063 315.211 138.685 315.211 139.333Z" fill="#FFD803"/>
<path d="M315.211 146.178C315.211 146.826 314.952 147.448 314.492 147.906C314.031 148.365 313.406 148.622 312.755 148.622C312.103 148.622 311.478 148.365 311.017 147.906C310.557 147.448 310.298 146.826 310.298 146.178C310.298 145.529 310.557 144.908 311.017 144.449C311.478 143.991 312.103 143.733 312.755 143.733C313.406 143.733 314.031 143.991 314.492 144.449C314.952 144.908 315.211 145.529 315.211 146.178Z" fill="#FFD803"/>
<path d="M315.211 153.022C315.211 153.671 314.952 154.292 314.492 154.751C314.031 155.209 313.406 155.467 312.755 155.467C312.103 155.467 311.478 155.209 311.017 154.751C310.557 154.292 310.298 153.671 310.298 153.022C310.298 152.374 310.557 151.752 311.017 151.294C311.478 150.835 312.103 150.578 312.755 150.578C313.406 150.578 314.031 150.835 314.492 151.294C314.952 151.752 315.211 152.374 315.211 153.022Z" fill="#FFD803"/>
<path d="M322.09 50.3556C322.09 51.0039 321.832 51.6257 321.371 52.0841C320.91 52.5425 320.285 52.8 319.634 52.8C318.982 52.8 318.357 52.5425 317.897 52.0841C317.436 51.6257 317.177 51.0039 317.177 50.3556C317.177 49.7073 317.436 49.0856 317.897 48.6271C318.357 48.1687 318.982 47.9111 319.634 47.9111C320.285 47.9111 320.91 48.1687 321.371 48.6271C321.832 49.0856 322.09 49.7073 322.09 50.3556Z" fill="#FFD803"/>
<path d="M322.09 57.1998C322.09 57.8482 321.832 58.47 321.371 58.9284C320.91 59.3868 320.285 59.6443 319.634 59.6443C318.982 59.6443 318.357 59.3868 317.897 58.9284C317.436 58.47 317.177 57.8482 317.177 57.1998C317.177 56.5516 317.436 55.9298 317.897 55.4714C318.357 55.013 318.982 54.7555 319.634 54.7555C320.285 54.7555 320.91 55.013 321.371 55.4714C321.832 55.9298 322.09 56.5516 322.09 57.1998Z" fill="#FFD803"/>
<path d="M322.09 64.0444C322.09 64.6927 321.832 65.3145 321.371 65.7729C320.91 66.2313 320.285 66.4888 319.634 66.4888C318.982 66.4888 318.357 66.2313 317.897 65.7729C317.436 65.3145 317.177 64.6927 317.177 64.0444C317.177 63.3961 317.436 62.7744 317.897 62.316C318.357 61.8575 318.982 61.5999 319.634 61.5999C320.285 61.5999 320.91 61.8575 321.371 62.316C321.832 62.7744 322.09 63.3961 322.09 64.0444Z" fill="#FFD803"/>
<path d="M322.09 70.8888C322.09 71.5371 321.832 72.1589 321.371 72.6173C320.91 73.0757 320.285 73.3332 319.634 73.3332C318.982 73.3332 318.357 73.0757 317.897 72.6173C317.436 72.1589 317.177 71.5371 317.177 70.8888C317.177 70.2405 317.436 69.6188 317.897 69.1604C318.357 68.7019 318.982 68.4443 319.634 68.4443C320.285 68.4443 320.91 68.7019 321.371 69.1604C321.832 69.6188 322.09 70.2405 322.09 70.8888Z" fill="#FFD803"/>
<path d="M322.09 98.2667C322.09 98.915 321.832 99.5367 321.371 99.9951C320.91 100.454 320.285 100.711 319.634 100.711C318.982 100.711 318.357 100.454 317.897 99.9951C317.436 99.5367 317.177 98.915 317.177 98.2667C317.177 97.6184 317.436 96.9966 317.897 96.5381C318.357 96.0797 318.982 95.8222 319.634 95.8222C320.285 95.8222 320.91 96.0797 321.371 96.5381C321.832 96.9966 322.09 97.6184 322.09 98.2667Z" fill="#FFD803"/>
<path d="M322.09 105.111C322.09 105.76 321.832 106.381 321.371 106.84C320.91 107.298 320.285 107.556 319.634 107.556C318.982 107.556 318.357 107.298 317.897 106.84C317.436 106.381 317.177 105.76 317.177 105.111C317.177 104.79 317.241 104.472 317.364 104.176C317.487 103.879 317.668 103.61 317.896 103.383C318.125 103.156 318.395 102.976 318.694 102.853C318.992 102.73 319.311 102.667 319.634 102.667C319.956 102.667 320.276 102.73 320.574 102.853C320.872 102.976 321.143 103.156 321.371 103.383C321.599 103.61 321.78 103.879 321.904 104.176C322.027 104.472 322.09 104.79 322.09 105.111Z" fill="#FFD803"/>
<path d="M322.09 111.956C322.09 112.604 321.832 113.226 321.371 113.684C320.91 114.143 320.285 114.4 319.634 114.4C318.982 114.4 318.357 114.143 317.897 113.684C317.436 113.226 317.177 112.604 317.177 111.956C317.177 111.307 317.436 110.686 317.897 110.227C318.357 109.769 318.982 109.511 319.634 109.511C320.285 109.511 320.91 109.769 321.371 110.227C321.832 110.686 322.09 111.307 322.09 111.956Z" fill="#FFD803"/>
<path d="M322.09 118.8C322.09 119.448 321.832 120.07 321.371 120.529C320.91 120.987 320.285 121.245 319.634 121.245C318.982 121.245 318.357 120.987 317.897 120.529C317.436 120.07 317.177 119.448 317.177 118.8C317.177 118.152 317.436 117.53 317.897 117.072C318.357 116.613 318.982 116.356 319.634 116.356C320.285 116.356 320.91 116.613 321.371 117.072C321.832 117.53 322.09 118.152 322.09 118.8Z" fill="#FFD803"/>
<path d="M322.09 125.644C322.09 126.293 321.832 126.915 321.371 127.373C320.91 127.831 320.285 128.089 319.634 128.089C318.982 128.089 318.357 127.831 317.897 127.373C317.436 126.915 317.177 126.293 317.177 125.644C317.177 124.996 317.436 124.374 317.897 123.916C318.357 123.458 318.982 123.2 319.634 123.2C320.285 123.2 320.91 123.458 321.371 123.916C321.832 124.374 322.09 124.996 322.09 125.644Z" fill="#FFD803"/>
<path d="M315.255 105.111C315.255 105.76 314.997 106.381 314.536 106.84C314.075 107.298 313.45 107.556 312.799 107.556C312.147 107.556 311.522 107.298 311.062 106.84C310.601 106.381 310.342 105.76 310.342 105.111C310.342 104.79 310.406 104.472 310.529 104.176C310.652 103.879 310.833 103.61 311.062 103.383C311.29 103.156 311.56 102.976 311.859 102.853C312.157 102.73 312.476 102.667 312.799 102.667C313.121 102.667 313.441 102.73 313.739 102.853C314.037 102.976 314.308 103.156 314.536 103.383C314.764 103.61 314.945 103.879 315.069 104.176C315.192 104.472 315.256 104.79 315.255 105.111Z" fill="#FFD803"/>
<path d="M315.255 111.956C315.255 112.604 314.997 113.226 314.536 113.684C314.075 114.143 313.45 114.4 312.799 114.4C312.147 114.4 311.522 114.143 311.062 113.684C310.601 113.226 310.342 112.604 310.342 111.956C310.342 111.307 310.601 110.686 311.062 110.227C311.522 109.769 312.147 109.511 312.799 109.511C313.45 109.511 314.075 109.769 314.536 110.227C314.997 110.686 315.255 111.307 315.255 111.956Z" fill="#FFD803"/>
<path d="M315.255 118.8C315.255 119.448 314.997 120.07 314.536 120.529C314.075 120.987 313.45 121.244 312.799 121.244C312.147 121.244 311.522 120.987 311.062 120.529C310.601 120.07 310.342 119.448 310.342 118.8C310.342 118.152 310.601 117.53 311.062 117.072C311.522 116.613 312.147 116.356 312.799 116.356C313.45 116.356 314.075 116.613 314.536 117.072C314.997 117.53 315.255 118.152 315.255 118.8Z" fill="#FFD803"/>
<path d="M315.255 125.645C315.255 126.293 314.997 126.915 314.536 127.373C314.075 127.832 313.45 128.089 312.799 128.089C312.147 128.089 311.522 127.832 311.062 127.373C310.601 126.915 310.342 126.293 310.342 125.645C310.342 124.996 310.601 124.375 311.062 123.916C311.522 123.458 312.147 123.2 312.799 123.2C313.45 123.2 314.075 123.458 314.536 123.916C314.997 124.375 315.255 124.996 315.255 125.645Z" fill="#FFD803"/>
<path d="M322.09 132.489C322.09 133.137 321.832 133.759 321.371 134.218C320.91 134.676 320.285 134.933 319.634 134.933C318.982 134.933 318.357 134.676 317.897 134.218C317.436 133.759 317.177 133.137 317.177 132.489C317.177 131.841 317.436 131.219 317.897 130.76C318.357 130.302 318.982 130.045 319.634 130.045C320.285 130.045 320.91 130.302 321.371 130.76C321.832 131.219 322.09 131.841 322.09 132.489Z" fill="#FFD803"/>
<path d="M322.09 139.333C322.09 139.982 321.832 140.604 321.371 141.062C320.91 141.52 320.285 141.778 319.634 141.778C318.982 141.778 318.357 141.52 317.897 141.062C317.436 140.604 317.177 139.982 317.177 139.333C317.177 138.685 317.436 138.063 317.897 137.605C318.357 137.146 318.982 136.889 319.634 136.889C320.285 136.889 320.91 137.146 321.371 137.605C321.832 138.063 322.09 138.685 322.09 139.333Z" fill="#FFD803"/>
<path d="M322.09 146.178C322.09 146.826 321.832 147.448 321.371 147.906C320.91 148.365 320.285 148.622 319.634 148.622C318.982 148.622 318.357 148.365 317.897 147.906C317.436 147.448 317.177 146.826 317.177 146.178C317.177 145.529 317.436 144.908 317.897 144.449C318.357 143.991 318.982 143.733 319.634 143.733C320.285 143.733 320.91 143.991 321.371 144.449C321.832 144.908 322.09 145.529 322.09 146.178Z" fill="#FFD803"/>
<path d="M322.09 153.022C322.09 153.671 321.832 154.292 321.371 154.751C320.91 155.209 320.285 155.467 319.634 155.467C318.982 155.467 318.357 155.209 317.897 154.751C317.436 154.292 317.177 153.671 317.177 153.022C317.177 152.374 317.436 151.752 317.897 151.294C318.357 150.835 318.982 150.578 319.634 150.578C320.285 150.578 320.91 150.835 321.371 151.294C321.832 151.752 322.09 152.374 322.09 153.022Z" fill="#FFD803"/>
<path d="M322.09 159.867C322.09 160.515 321.832 161.137 321.371 161.595C320.91 162.054 320.285 162.311 319.634 162.311C318.982 162.311 318.357 162.054 317.897 161.595C317.436 161.137 317.177 160.515 317.177 159.867C317.177 159.218 317.436 158.597 317.897 158.138C318.357 157.68 318.982 157.422 319.634 157.422C320.285 157.422 320.91 157.68 321.371 158.138C321.832 158.597 322.09 159.218 322.09 159.867Z" fill="#FFD803"/>
<path d="M328.969 36.6667C328.969 37.315 328.71 37.9368 328.249 38.3952C327.789 38.8536 327.164 39.1111 326.512 39.1111C325.861 39.1111 325.236 38.8536 324.775 38.3952C324.314 37.9368 324.055 37.315 324.055 36.6667C324.055 36.0184 324.314 35.3967 324.775 34.9382C325.236 34.4798 325.861 34.2222 326.512 34.2222C327.164 34.2222 327.789 34.4798 328.249 34.9382C328.71 35.3967 328.969 36.0184 328.969 36.6667Z" fill="#FFD803"/>
<path d="M328.969 43.5112C328.969 44.1595 328.71 44.7813 328.249 45.2397C327.789 45.6981 327.164 45.9556 326.512 45.9556C325.861 45.9556 325.236 45.6981 324.775 45.2397C324.314 44.7813 324.055 44.1595 324.055 43.5112C324.055 42.8628 324.314 42.2412 324.775 41.7827C325.236 41.3243 325.861 41.0667 326.512 41.0667C327.164 41.0667 327.789 41.3243 328.249 41.7827C328.71 42.2412 328.969 42.8628 328.969 43.5112Z" fill="#FFD803"/>
<path d="M328.969 50.3556C328.969 51.0039 328.71 51.6257 328.249 52.0841C327.789 52.5425 327.164 52.8 326.512 52.8C325.861 52.8 325.236 52.5425 324.775 52.0841C324.314 51.6257 324.055 51.0039 324.055 50.3556C324.055 49.7073 324.314 49.0856 324.775 48.6271C325.236 48.1687 325.861 47.9111 326.512 47.9111C327.164 47.9111 327.789 48.1687 328.249 48.6271C328.71 49.0856 328.969 49.7073 328.969 50.3556Z" fill="#FFD803"/>
<path d="M328.969 57.1998C328.969 57.8482 328.71 58.47 328.249 58.9284C327.789 59.3868 327.164 59.6443 326.512 59.6443C325.861 59.6443 325.236 59.3868 324.775 58.9284C324.314 58.47 324.055 57.8482 324.055 57.1998C324.055 56.5516 324.314 55.9298 324.775 55.4714C325.236 55.013 325.861 54.7555 326.512 54.7555C327.164 54.7555 327.789 55.013 328.249 55.4714C328.71 55.9298 328.969 56.5516 328.969 57.1998Z" fill="#FFD803"/>
<path d="M328.969 64.0444C328.969 64.6927 328.71 65.3145 328.249 65.7729C327.789 66.2313 327.164 66.4888 326.512 66.4888C325.861 66.4888 325.236 66.2313 324.775 65.7729C324.314 65.3145 324.055 64.6927 324.055 64.0444C324.055 63.3961 324.314 62.7744 324.775 62.316C325.236 61.8575 325.861 61.5999 326.512 61.5999C327.164 61.5999 327.789 61.8575 328.249 62.316C328.71 62.7744 328.969 63.3961 328.969 64.0444Z" fill="#FFD803"/>
<path d="M328.969 70.8888C328.969 71.5371 328.71 72.1589 328.249 72.6173C327.789 73.0757 327.164 73.3332 326.512 73.3332C325.861 73.3332 325.236 73.0757 324.775 72.6173C324.314 72.1589 324.055 71.5371 324.055 70.8888C324.055 70.2405 324.314 69.6188 324.775 69.1604C325.236 68.7019 325.861 68.4443 326.512 68.4443C327.164 68.4443 327.789 68.7019 328.249 69.1604C328.71 69.6188 328.969 70.2405 328.969 70.8888Z" fill="#FFD803"/>
<path d="M328.969 98.2667C328.969 98.915 328.71 99.5367 328.249 99.9951C327.789 100.454 327.164 100.711 326.512 100.711C325.861 100.711 325.236 100.454 324.775 99.9951C324.314 99.5367 324.055 98.915 324.055 98.2667C324.055 97.6184 324.314 96.9966 324.775 96.5381C325.236 96.0797 325.861 95.8222 326.512 95.8222C327.164 95.8222 327.789 96.0797 328.249 96.5381C328.71 96.9966 328.969 97.6184 328.969 98.2667Z" fill="#FFD803"/>
<path d="M328.969 105.111C328.969 105.76 328.71 106.381 328.249 106.84C327.789 107.298 327.164 107.556 326.512 107.556C325.861 107.556 325.236 107.298 324.775 106.84C324.314 106.381 324.055 105.76 324.055 105.111C324.055 104.79 324.119 104.472 324.242 104.176C324.366 103.879 324.547 103.61 324.775 103.383C325.003 103.156 325.274 102.976 325.572 102.853C325.87 102.73 326.19 102.667 326.512 102.667C326.835 102.667 327.154 102.73 327.452 102.853C327.75 102.976 328.021 103.156 328.249 103.383C328.478 103.61 328.658 103.879 328.782 104.176C328.905 104.472 328.969 104.79 328.969 105.111Z" fill="#FFD803"/>
<path d="M328.969 111.956C328.969 112.604 328.71 113.226 328.249 113.684C327.789 114.143 327.164 114.4 326.512 114.4C325.861 114.4 325.236 114.143 324.775 113.684C324.314 113.226 324.055 112.604 324.055 111.956C324.055 111.307 324.314 110.686 324.775 110.227C325.236 109.769 325.861 109.511 326.512 109.511C327.164 109.511 327.789 109.769 328.249 110.227C328.71 110.686 328.969 111.307 328.969 111.956Z" fill="#FFD803"/>
<path d="M328.969 118.8C328.969 119.448 328.71 120.07 328.249 120.529C327.789 120.987 327.164 121.245 326.512 121.245C325.861 121.245 325.236 120.987 324.775 120.529C324.314 120.07 324.055 119.448 324.055 118.8C324.055 118.152 324.314 117.53 324.775 117.072C325.236 116.613 325.861 116.356 326.512 116.356C327.164 116.356 327.789 116.613 328.249 117.072C328.71 117.53 328.969 118.152 328.969 118.8Z" fill="#FFD803"/>
<path d="M328.969 125.644C328.969 126.293 328.71 126.915 328.249 127.373C327.789 127.831 327.164 128.089 326.512 128.089C325.861 128.089 325.236 127.831 324.775 127.373C324.314 126.915 324.055 126.293 324.055 125.644C324.055 124.996 324.314 124.374 324.775 123.916C325.236 123.458 325.861 123.2 326.512 123.2C327.164 123.2 327.789 123.458 328.249 123.916C328.71 124.374 328.969 124.996 328.969 125.644Z" fill="#FFD803"/>
<path d="M328.969 132.489C328.969 133.137 328.71 133.759 328.249 134.218C327.789 134.676 327.164 134.933 326.512 134.933C325.861 134.933 325.236 134.676 324.775 134.218C324.314 133.759 324.055 133.137 324.055 132.489C324.055 131.841 324.314 131.219 324.775 130.76C325.236 130.302 325.861 130.045 326.512 130.045C327.164 130.045 327.789 130.302 328.249 130.76C328.71 131.219 328.969 131.841 328.969 132.489Z" fill="#FFD803"/>
<path d="M328.969 139.333C328.969 139.982 328.71 140.604 328.249 141.062C327.789 141.52 327.164 141.778 326.512 141.778C325.861 141.778 325.236 141.52 324.775 141.062C324.314 140.604 324.055 139.982 324.055 139.333C324.055 138.685 324.314 138.063 324.775 137.605C325.236 137.146 325.861 136.889 326.512 136.889C327.164 136.889 327.789 137.146 328.249 137.605C328.71 138.063 328.969 138.685 328.969 139.333Z" fill="#FFD803"/>
<path d="M328.969 146.178C328.969 146.826 328.71 147.448 328.249 147.906C327.789 148.365 327.164 148.622 326.512 148.622C325.861 148.622 325.236 148.365 324.775 147.906C324.314 147.448 324.055 146.826 324.055 146.178C324.055 145.529 324.314 144.908 324.775 144.449C325.236 143.991 325.861 143.733 326.512 143.733C327.164 143.733 327.789 143.991 328.249 144.449C328.71 144.908 328.969 145.529 328.969 146.178Z" fill="#FFD803"/>
<path d="M328.969 153.022C328.969 153.671 328.71 154.292 328.249 154.751C327.789 155.209 327.164 155.467 326.512 155.467C325.861 155.467 325.236 155.209 324.775 154.751C324.314 154.292 324.055 153.671 324.055 153.022C324.055 152.374 324.314 151.752 324.775 151.294C325.236 150.835 325.861 150.578 326.512 150.578C327.164 150.578 327.789 150.835 328.249 151.294C328.71 151.752 328.969 152.374 328.969 153.022Z" fill="#FFD803"/>
<path d="M328.969 159.867C328.969 160.515 328.71 161.137 328.249 161.595C327.789 162.054 327.164 162.311 326.512 162.311C325.861 162.311 325.236 162.054 324.775 161.595C324.314 161.137 324.055 160.515 324.055 159.867C324.055 159.218 324.314 158.597 324.775 158.138C325.236 157.68 325.861 157.422 326.512 157.422C327.164 157.422 327.789 157.68 328.249 158.138C328.71 158.597 328.969 159.218 328.969 159.867Z" fill="#FFD803"/>
<path d="M328.969 166.711C328.969 167.36 328.71 167.981 328.249 168.44C327.789 168.898 327.164 169.156 326.512 169.156C325.861 169.156 325.236 168.898 324.775 168.44C324.314 167.981 324.055 167.36 324.055 166.711C324.055 166.063 324.314 165.441 324.775 164.983C325.236 164.524 325.861 164.267 326.512 164.267C327.164 164.267 327.789 164.524 328.249 164.983C328.71 165.441 328.969 166.063 328.969 166.711Z" fill="#FFD803"/>
<path d="M328.969 173.556C328.969 174.204 328.71 174.826 328.249 175.284C327.789 175.743 327.164 176 326.512 176C325.861 176 325.236 175.743 324.775 175.284C324.314 174.826 324.055 174.204 324.055 173.556C324.055 172.907 324.314 172.285 324.775 171.827C325.236 171.369 325.861 171.111 326.512 171.111C327.164 171.111 327.789 171.369 328.249 171.827C328.71 172.285 328.969 172.907 328.969 173.556Z" fill="#FFD803"/>
<path d="M335.848 29.8222C335.848 30.4705 335.589 31.0923 335.129 31.5507C334.668 32.0091 334.043 32.2666 333.392 32.2666C332.74 32.2666 332.115 32.0091 331.654 31.5507C331.194 31.0923 330.935 30.4705 330.935 29.8222C330.935 29.1738 331.194 28.5522 331.654 28.0937C332.115 27.6353 332.74 27.3777 333.392 27.3777C334.043 27.3777 334.668 27.6353 335.129 28.0937C335.589 28.5522 335.848 29.1738 335.848 29.8222Z" fill="#FFD803"/>
<path d="M335.848 36.6667C335.848 37.315 335.589 37.9368 335.129 38.3952C334.668 38.8536 334.043 39.1111 333.392 39.1111C332.74 39.1111 332.115 38.8536 331.654 38.3952C331.194 37.9368 330.935 37.315 330.935 36.6667C330.935 36.0184 331.194 35.3967 331.654 34.9382C332.115 34.4798 332.74 34.2222 333.392 34.2222C334.043 34.2222 334.668 34.4798 335.129 34.9382C335.589 35.3967 335.848 36.0184 335.848 36.6667Z" fill="#FFD803"/>
<path d="M335.848 43.5112C335.848 44.1595 335.589 44.7813 335.129 45.2397C334.668 45.6981 334.043 45.9556 333.392 45.9556C332.74 45.9556 332.115 45.6981 331.654 45.2397C331.194 44.7813 330.935 44.1595 330.935 43.5112C330.935 42.8628 331.194 42.2412 331.654 41.7827C332.115 41.3243 332.74 41.0667 333.392 41.0667C334.043 41.0667 334.668 41.3243 335.129 41.7827C335.589 42.2412 335.848 42.8628 335.848 43.5112Z" fill="#FFD803"/>
<path d="M335.848 50.3556C335.848 51.0039 335.589 51.6257 335.129 52.0841C334.668 52.5425 334.043 52.8 333.392 52.8C332.74 52.8 332.115 52.5425 331.654 52.0841C331.194 51.6257 330.935 51.0039 330.935 50.3556C330.935 49.7073 331.194 49.0856 331.654 48.6271C332.115 48.1687 332.74 47.9111 333.392 47.9111C334.043 47.9111 334.668 48.1687 335.129 48.6271C335.589 49.0856 335.848 49.7073 335.848 50.3556Z" fill="#FFD803"/>
<path d="M335.848 57.1998C335.848 57.8482 335.589 58.47 335.129 58.9284C334.668 59.3868 334.043 59.6443 333.392 59.6443C332.74 59.6443 332.115 59.3868 331.654 58.9284C331.194 58.47 330.935 57.8482 330.935 57.1998C330.935 56.5516 331.194 55.9298 331.654 55.4714C332.115 55.013 332.74 54.7555 333.392 54.7555C334.043 54.7555 334.668 55.013 335.129 55.4714C335.589 55.9298 335.848 56.5516 335.848 57.1998Z" fill="#FFD803"/>
<path d="M335.848 64.0444C335.848 64.6927 335.589 65.3145 335.129 65.7729C334.668 66.2313 334.043 66.4888 333.392 66.4888C332.74 66.4888 332.115 66.2313 331.654 65.7729C331.194 65.3145 330.935 64.6927 330.935 64.0444C330.935 63.3961 331.194 62.7744 331.654 62.316C332.115 61.8575 332.74 61.5999 333.392 61.5999C334.043 61.5999 334.668 61.8575 335.129 62.316C335.589 62.7744 335.848 63.3961 335.848 64.0444Z" fill="#FFD803"/>
<path d="M335.848 70.8888C335.848 71.5371 335.589 72.1589 335.129 72.6173C334.668 73.0757 334.043 73.3332 333.392 73.3332C332.74 73.3332 332.115 73.0757 331.654 72.6173C331.194 72.1589 330.935 71.5371 330.935 70.8888C330.935 70.2405 331.194 69.6188 331.654 69.1604C332.115 68.7019 332.74 68.4443 333.392 68.4443C334.043 68.4443 334.668 68.7019 335.129 69.1604C335.589 69.6188 335.848 70.2405 335.848 70.8888Z" fill="#FFD803"/>
<path d="M335.848 77.7332C335.848 78.3815 335.589 79.0033 335.129 79.4617C334.668 79.9201 334.043 80.1776 333.392 80.1776C332.74 80.1776 332.115 79.9201 331.654 79.4617C331.194 79.0033 330.935 78.3815 330.935 77.7332C330.935 77.0849 331.194 76.4632 331.654 76.0048C332.115 75.5463 332.74 75.2887 333.392 75.2887C334.043 75.2887 334.668 75.5463 335.129 76.0048C335.589 76.4632 335.848 77.0849 335.848 77.7332Z" fill="#FFD803"/>
<path d="M335.848 84.5778C335.848 85.2261 335.589 85.8478 335.129 86.3062C334.668 86.7646 334.043 87.0222 333.392 87.0222C332.74 87.0222 332.115 86.7646 331.654 86.3062C331.194 85.8478 330.935 85.2261 330.935 84.5778C330.935 84.2568 330.998 83.9388 331.122 83.6423C331.245 83.3457 331.426 83.0762 331.654 82.8493C331.882 82.6223 332.153 82.4422 332.451 82.3193C332.749 82.1965 333.069 82.1332 333.392 82.1332C333.714 82.1332 334.034 82.1965 334.332 82.3193C334.63 82.4422 334.901 82.6223 335.129 82.8493C335.357 83.0762 335.538 83.3457 335.661 83.6423C335.785 83.9388 335.848 84.2568 335.848 84.5778Z" fill="#FFD803"/>
<path d="M335.848 91.4222C335.848 92.0705 335.589 92.6922 335.129 93.1506C334.668 93.609 334.043 93.8666 333.392 93.8666C332.74 93.8666 332.115 93.609 331.654 93.1506C331.194 92.6922 330.935 92.0705 330.935 91.4222C330.935 90.7739 331.194 90.1521 331.654 89.6936C332.115 89.2352 332.74 88.9777 333.392 88.9777C334.043 88.9777 334.668 89.2352 335.129 89.6936C335.589 90.1521 335.848 90.7739 335.848 91.4222Z" fill="#FFD803"/>
<path d="M335.848 98.2667C335.848 98.915 335.589 99.5367 335.129 99.9951C334.668 100.454 334.043 100.711 333.392 100.711C332.74 100.711 332.115 100.454 331.654 99.9951C331.194 99.5367 330.935 98.915 330.935 98.2667C330.935 97.6184 331.194 96.9966 331.654 96.5381C332.115 96.0797 332.74 95.8222 333.392 95.8222C334.043 95.8222 334.668 96.0797 335.129 96.5381C335.589 96.9966 335.848 97.6184 335.848 98.2667Z" fill="#FFD803"/>
<path d="M335.848 105.111C335.848 105.76 335.589 106.381 335.129 106.84C334.668 107.298 334.043 107.556 333.392 107.556C332.74 107.556 332.115 107.298 331.654 106.84C331.194 106.381 330.935 105.76 330.935 105.111C330.935 104.79 330.998 104.472 331.122 104.176C331.245 103.879 331.426 103.61 331.654 103.383C331.882 103.156 332.153 102.976 332.451 102.853C332.749 102.73 333.069 102.667 333.392 102.667C333.714 102.667 334.034 102.73 334.332 102.853C334.63 102.976 334.901 103.156 335.129 103.383C335.357 103.61 335.538 103.879 335.661 104.176C335.785 104.472 335.848 104.79 335.848 105.111Z" fill="#FFD803"/>
<path d="M335.848 111.956C335.848 112.604 335.589 113.226 335.129 113.684C334.668 114.143 334.043 114.4 333.392 114.4C332.74 114.4 332.115 114.143 331.654 113.684C331.194 113.226 330.935 112.604 330.935 111.956C330.935 111.307 331.194 110.686 331.654 110.227C332.115 109.769 332.74 109.511 333.392 109.511C334.043 109.511 334.668 109.769 335.129 110.227C335.589 110.686 335.848 111.307 335.848 111.956Z" fill="#FFD803"/>
<path d="M335.848 118.8C335.848 119.448 335.589 120.07 335.129 120.529C334.668 120.987 334.043 121.245 333.392 121.245C332.74 121.245 332.115 120.987 331.654 120.529C331.194 120.07 330.935 119.448 330.935 118.8C330.935 118.152 331.194 117.53 331.654 117.072C332.115 116.613 332.74 116.356 333.392 116.356C334.043 116.356 334.668 116.613 335.129 117.072C335.589 117.53 335.848 118.152 335.848 118.8Z" fill="#FFD803"/>
<path d="M335.848 125.644C335.848 126.293 335.589 126.915 335.129 127.373C334.668 127.831 334.043 128.089 333.392 128.089C332.74 128.089 332.115 127.831 331.654 127.373C331.194 126.915 330.935 126.293 330.935 125.644C330.935 124.996 331.194 124.374 331.654 123.916C332.115 123.458 332.74 123.2 333.392 123.2C334.043 123.2 334.668 123.458 335.129 123.916C335.589 124.374 335.848 124.996 335.848 125.644Z" fill="#FFD803"/>
<path d="M335.848 132.489C335.848 133.137 335.589 133.759 335.129 134.218C334.668 134.676 334.043 134.933 333.392 134.933C332.74 134.933 332.115 134.676 331.654 134.218C331.194 133.759 330.935 133.137 330.935 132.489C330.935 131.841 331.194 131.219 331.654 130.76C332.115 130.302 332.74 130.045 333.392 130.045C334.043 130.045 334.668 130.302 335.129 130.76C335.589 131.219 335.848 131.841 335.848 132.489Z" fill="#FFD803"/>
<path d="M335.848 139.333C335.848 139.982 335.589 140.604 335.129 141.062C334.668 141.52 334.043 141.778 333.392 141.778C332.74 141.778 332.115 141.52 331.654 141.062C331.194 140.604 330.935 139.982 330.935 139.333C330.935 138.685 331.194 138.063 331.654 137.605C332.115 137.146 332.74 136.889 333.392 136.889C334.043 136.889 334.668 137.146 335.129 137.605C335.589 138.063 335.848 138.685 335.848 139.333Z" fill="#FFD803"/>
<path d="M335.848 146.178C335.848 146.826 335.589 147.448 335.129 147.906C334.668 148.365 334.043 148.622 333.392 148.622C332.74 148.622 332.115 148.365 331.654 147.906C331.194 147.448 330.935 146.826 330.935 146.178C330.935 145.529 331.194 144.908 331.654 144.449C332.115 143.991 332.74 143.733 333.392 143.733C334.043 143.733 334.668 143.991 335.129 144.449C335.589 144.908 335.848 145.529 335.848 146.178Z" fill="#FFD803"/>
<path d="M335.848 153.022C335.848 153.671 335.589 154.292 335.129 154.751C334.668 155.209 334.043 155.467 333.392 155.467C332.74 155.467 332.115 155.209 331.654 154.751C331.194 154.292 330.935 153.671 330.935 153.022C330.935 152.374 331.194 151.752 331.654 151.294C332.115 150.835 332.74 150.578 333.392 150.578C334.043 150.578 334.668 150.835 335.129 151.294C335.589 151.752 335.848 152.374 335.848 153.022Z" fill="#FFD803"/>
<path d="M335.848 159.867C335.848 160.515 335.589 161.137 335.129 161.595C334.668 162.054 334.043 162.311 333.392 162.311C332.74 162.311 332.115 162.054 331.654 161.595C331.194 161.137 330.935 160.515 330.935 159.867C330.935 159.218 331.194 158.597 331.654 158.138C332.115 157.68 332.74 157.422 333.392 157.422C334.043 157.422 334.668 157.68 335.129 158.138C335.589 158.597 335.848 159.218 335.848 159.867Z" fill="#FFD803"/>
<path d="M335.848 166.711C335.848 167.36 335.589 167.981 335.129 168.44C334.668 168.898 334.043 169.156 333.392 169.156C332.74 169.156 332.115 168.898 331.654 168.44C331.194 167.981 330.935 167.36 330.935 166.711C330.935 166.063 331.194 165.441 331.654 164.983C332.115 164.524 332.74 164.267 333.392 164.267C334.043 164.267 334.668 164.524 335.129 164.983C335.589 165.441 335.848 166.063 335.848 166.711Z" fill="#FFD803"/>
<path d="M335.848 173.556C335.848 174.204 335.589 174.826 335.129 175.284C334.668 175.743 334.043 176 333.392 176C332.74 176 332.115 175.743 331.654 175.284C331.194 174.826 330.935 174.204 330.935 173.556C330.935 172.907 331.194 172.285 331.654 171.827C332.115 171.369 332.74 171.111 333.392 171.111C334.043 171.111 334.668 171.369 335.129 171.827C335.589 172.285 335.848 172.907 335.848 173.556Z" fill="#FFD803"/>
<path d="M342.726 16.1333C342.726 16.7817 342.468 17.4035 342.007 17.8619C341.546 18.3203 340.921 18.5778 340.27 18.5778C339.618 18.5778 338.993 18.3203 338.533 17.8619C338.072 17.4035 337.813 16.7817 337.813 16.1333C337.813 15.485 338.072 14.8634 338.533 14.4049C338.993 13.9465 339.618 13.6889 340.27 13.6889C340.921 13.6889 341.546 13.9465 342.007 14.4049C342.468 14.8634 342.726 15.485 342.726 16.1333Z" fill="#FFD803"/>
<path d="M342.726 22.9778C342.726 23.6261 342.468 24.2479 342.007 24.7063C341.546 25.1647 340.921 25.4222 340.27 25.4222C339.618 25.4222 338.993 25.1647 338.533 24.7063C338.072 24.2479 337.813 23.6261 337.813 22.9778C337.813 22.3294 338.072 21.7078 338.533 21.2493C338.993 20.7909 339.618 20.5333 340.27 20.5333C340.921 20.5333 341.546 20.7909 342.007 21.2493C342.468 21.7078 342.726 22.3294 342.726 22.9778Z" fill="#FFD803"/>
<path d="M342.726 29.8222C342.726 30.4705 342.468 31.0923 342.007 31.5507C341.546 32.0091 340.921 32.2666 340.27 32.2666C339.618 32.2666 338.993 32.0091 338.533 31.5507C338.072 31.0923 337.813 30.4705 337.813 29.8222C337.813 29.1738 338.072 28.5522 338.533 28.0937C338.993 27.6353 339.618 27.3777 340.27 27.3777C340.921 27.3777 341.546 27.6353 342.007 28.0937C342.468 28.5522 342.726 29.1738 342.726 29.8222Z" fill="#FFD803"/>
<path d="M342.726 36.6667C342.726 37.315 342.468 37.9368 342.007 38.3952C341.546 38.8536 340.921 39.1111 340.27 39.1111C339.618 39.1111 338.993 38.8536 338.533 38.3952C338.072 37.9368 337.813 37.315 337.813 36.6667C337.813 36.0184 338.072 35.3967 338.533 34.9382C338.993 34.4798 339.618 34.2222 340.27 34.2222C340.921 34.2222 341.546 34.4798 342.007 34.9382C342.468 35.3967 342.726 36.0184 342.726 36.6667Z" fill="#FFD803"/>
<path d="M342.726 43.5112C342.726 44.1595 342.468 44.7813 342.007 45.2397C341.546 45.6981 340.921 45.9556 340.27 45.9556C339.618 45.9556 338.993 45.6981 338.533 45.2397C338.072 44.7813 337.813 44.1595 337.813 43.5112C337.813 42.8628 338.072 42.2412 338.533 41.7827C338.993 41.3243 339.618 41.0667 340.27 41.0667C340.921 41.0667 341.546 41.3243 342.007 41.7827C342.468 42.2412 342.726 42.8628 342.726 43.5112Z" fill="#FFD803"/>
<path d="M342.726 50.3556C342.726 51.0039 342.468 51.6257 342.007 52.0841C341.546 52.5425 340.921 52.8 340.27 52.8C339.618 52.8 338.993 52.5425 338.533 52.0841C338.072 51.6257 337.813 51.0039 337.813 50.3556C337.813 49.7073 338.072 49.0856 338.533 48.6271C338.993 48.1687 339.618 47.9111 340.27 47.9111C340.921 47.9111 341.546 48.1687 342.007 48.6271C342.468 49.0856 342.726 49.7073 342.726 50.3556Z" fill="#FFD803"/>
<path d="M342.726 57.1998C342.726 57.8482 342.468 58.47 342.007 58.9284C341.546 59.3868 340.921 59.6443 340.27 59.6443C339.618 59.6443 338.993 59.3868 338.533 58.9284C338.072 58.47 337.813 57.8482 337.813 57.1998C337.813 56.5516 338.072 55.9298 338.533 55.4714C338.993 55.013 339.618 54.7555 340.27 54.7555C340.921 54.7555 341.546 55.013 342.007 55.4714C342.468 55.9298 342.726 56.5516 342.726 57.1998Z" fill="#FFD803"/>
<path d="M342.726 64.0444C342.726 64.6927 342.468 65.3145 342.007 65.7729C341.546 66.2313 340.921 66.4888 340.27 66.4888C339.618 66.4888 338.993 66.2313 338.533 65.7729C338.072 65.3145 337.813 64.6927 337.813 64.0444C337.813 63.3961 338.072 62.7744 338.533 62.316C338.993 61.8575 339.618 61.5999 340.27 61.5999C340.921 61.5999 341.546 61.8575 342.007 62.316C342.468 62.7744 342.726 63.3961 342.726 64.0444Z" fill="#FFD803"/>
<path d="M342.726 70.8888C342.726 71.5371 342.468 72.1589 342.007 72.6173C341.546 73.0757 340.921 73.3332 340.27 73.3332C339.618 73.3332 338.993 73.0757 338.533 72.6173C338.072 72.1589 337.813 71.5371 337.813 70.8888C337.813 70.2405 338.072 69.6188 338.533 69.1604C338.993 68.7019 339.618 68.4443 340.27 68.4443C340.921 68.4443 341.546 68.7019 342.007 69.1604C342.468 69.6188 342.726 70.2405 342.726 70.8888Z" fill="#FFD803"/>
<path d="M342.726 77.7332C342.726 78.3815 342.468 79.0033 342.007 79.4617C341.546 79.9201 340.921 80.1776 340.27 80.1776C339.618 80.1776 338.993 79.9201 338.533 79.4617C338.072 79.0033 337.813 78.3815 337.813 77.7332C337.813 77.0849 338.072 76.4632 338.533 76.0048C338.993 75.5463 339.618 75.2887 340.27 75.2887C340.921 75.2887 341.546 75.5463 342.007 76.0048C342.468 76.4632 342.726 77.0849 342.726 77.7332Z" fill="#FFD803"/>
<path d="M342.726 84.5778C342.726 85.2261 342.468 85.8478 342.007 86.3062C341.546 86.7646 340.921 87.0222 340.27 87.0222C339.618 87.0222 338.993 86.7646 338.533 86.3062C338.072 85.8478 337.813 85.2261 337.813 84.5778C337.813 84.2568 337.877 83.9388 338 83.6423C338.123 83.3457 338.304 83.0762 338.533 82.8493C338.761 82.6223 339.031 82.4422 339.33 82.3193C339.628 82.1965 339.947 82.1332 340.27 82.1332C340.592 82.1332 340.912 82.1965 341.21 82.3193C341.508 82.4422 341.779 82.6223 342.007 82.8493C342.235 83.0762 342.416 83.3457 342.539 83.6423C342.663 83.9388 342.726 84.2568 342.726 84.5778Z" fill="#FFD803"/>
<path d="M342.726 91.4222C342.726 92.0705 342.468 92.6922 342.007 93.1506C341.546 93.609 340.921 93.8666 340.27 93.8666C339.618 93.8666 338.993 93.609 338.533 93.1506C338.072 92.6922 337.813 92.0705 337.813 91.4222C337.813 90.7739 338.072 90.1521 338.533 89.6936C338.993 89.2352 339.618 88.9777 340.27 88.9777C340.921 88.9777 341.546 89.2352 342.007 89.6936C342.468 90.1521 342.726 90.7739 342.726 91.4222Z" fill="#FFD803"/>
<path d="M342.726 98.2667C342.726 98.915 342.468 99.5367 342.007 99.9951C341.546 100.454 340.921 100.711 340.27 100.711C339.618 100.711 338.993 100.454 338.533 99.9951C338.072 99.5367 337.813 98.915 337.813 98.2667C337.813 97.6184 338.072 96.9966 338.533 96.5381C338.993 96.0797 339.618 95.8222 340.27 95.8222C340.921 95.8222 341.546 96.0797 342.007 96.5381C342.468 96.9966 342.726 97.6184 342.726 98.2667Z" fill="#FFD803"/>
<path d="M342.726 105.111C342.726 105.76 342.468 106.381 342.007 106.84C341.546 107.298 340.921 107.556 340.27 107.556C339.618 107.556 338.993 107.298 338.533 106.84C338.072 106.381 337.813 105.76 337.813 105.111C337.813 104.79 337.876 104.472 338 104.176C338.123 103.879 338.304 103.61 338.532 103.383C338.761 103.156 339.031 102.976 339.33 102.853C339.628 102.73 339.947 102.667 340.27 102.667C340.592 102.667 340.912 102.73 341.21 102.853C341.508 102.976 341.779 103.156 342.007 103.383C342.235 103.61 342.416 103.879 342.539 104.176C342.663 104.472 342.726 104.79 342.726 105.111Z" fill="#FFD803"/>
<path d="M342.726 111.956C342.726 112.604 342.468 113.226 342.007 113.684C341.546 114.143 340.921 114.4 340.27 114.4C339.618 114.4 338.993 114.143 338.533 113.684C338.072 113.226 337.813 112.604 337.813 111.956C337.813 111.307 338.072 110.686 338.533 110.227C338.993 109.769 339.618 109.511 340.27 109.511C340.921 109.511 341.546 109.769 342.007 110.227C342.468 110.686 342.726 111.307 342.726 111.956Z" fill="#FFD803"/>
<path d="M342.726 118.8C342.726 119.448 342.468 120.07 342.007 120.529C341.546 120.987 340.921 121.245 340.27 121.245C339.618 121.245 338.993 120.987 338.533 120.529C338.072 120.07 337.813 119.448 337.813 118.8C337.813 118.152 338.072 117.53 338.533 117.072C338.993 116.613 339.618 116.356 340.27 116.356C340.921 116.356 341.546 116.613 342.007 117.072C342.468 117.53 342.726 118.152 342.726 118.8Z" fill="#FFD803"/>
<path d="M342.726 125.644C342.726 126.293 342.468 126.915 342.007 127.373C341.546 127.831 340.921 128.089 340.27 128.089C339.618 128.089 338.993 127.831 338.533 127.373C338.072 126.915 337.813 126.293 337.813 125.644C337.813 124.996 338.072 124.374 338.533 123.916C338.993 123.458 339.618 123.2 340.27 123.2C340.921 123.2 341.546 123.458 342.007 123.916C342.468 124.374 342.726 124.996 342.726 125.644Z" fill="#FFD803"/>
<path d="M342.726 132.489C342.726 133.137 342.468 133.759 342.007 134.218C341.546 134.676 340.921 134.933 340.27 134.933C339.618 134.933 338.993 134.676 338.533 134.218C338.072 133.759 337.813 133.137 337.813 132.489C337.813 131.841 338.072 131.219 338.533 130.76C338.993 130.302 339.618 130.045 340.27 130.045C340.921 130.045 341.546 130.302 342.007 130.76C342.468 131.219 342.726 131.841 342.726 132.489Z" fill="#FFD803"/>
<path d="M342.726 139.333C342.726 139.982 342.468 140.604 342.007 141.062C341.546 141.52 340.921 141.778 340.27 141.778C339.618 141.778 338.993 141.52 338.533 141.062C338.072 140.604 337.813 139.982 337.813 139.333C337.813 138.685 338.072 138.063 338.533 137.605C338.993 137.146 339.618 136.889 340.27 136.889C340.921 136.889 341.546 137.146 342.007 137.605C342.468 138.063 342.726 138.685 342.726 139.333Z" fill="#FFD803"/>
<path d="M342.726 146.178C342.726 146.826 342.468 147.448 342.007 147.906C341.546 148.365 340.921 148.622 340.27 148.622C339.618 148.622 338.993 148.365 338.533 147.906C338.072 147.448 337.813 146.826 337.813 146.178C337.813 145.529 338.072 144.908 338.533 144.449C338.993 143.991 339.618 143.733 340.27 143.733C340.921 143.733 341.546 143.991 342.007 144.449C342.468 144.908 342.726 145.529 342.726 146.178Z" fill="#FFD803"/>
<path d="M349.606 16.1333C349.606 16.7817 349.347 17.4035 348.886 17.8619C348.425 18.3203 347.8 18.5778 347.149 18.5778C346.497 18.5778 345.872 18.3203 345.412 17.8619C344.951 17.4035 344.692 16.7817 344.692 16.1333C344.692 15.485 344.951 14.8634 345.412 14.4049C345.872 13.9465 346.497 13.6889 347.149 13.6889C347.8 13.6889 348.425 13.9465 348.886 14.4049C349.347 14.8634 349.606 15.485 349.606 16.1333Z" fill="#FFD803"/>
<path d="M349.606 22.9778C349.606 23.6261 349.347 24.2479 348.886 24.7063C348.425 25.1647 347.8 25.4222 347.149 25.4222C346.497 25.4222 345.872 25.1647 345.412 24.7063C344.951 24.2479 344.692 23.6261 344.692 22.9778C344.692 22.3294 344.951 21.7078 345.412 21.2493C345.872 20.7909 346.497 20.5333 347.149 20.5333C347.8 20.5333 348.425 20.7909 348.886 21.2493C349.347 21.7078 349.606 22.3294 349.606 22.9778Z" fill="#FFD803"/>
<path d="M349.606 29.8222C349.606 30.4705 349.347 31.0923 348.886 31.5507C348.425 32.0091 347.8 32.2666 347.149 32.2666C346.497 32.2666 345.872 32.0091 345.412 31.5507C344.951 31.0923 344.692 30.4705 344.692 29.8222C344.692 29.1738 344.951 28.5522 345.412 28.0937C345.872 27.6353 346.497 27.3777 347.149 27.3777C347.8 27.3777 348.425 27.6353 348.886 28.0937C349.347 28.5522 349.606 29.1738 349.606 29.8222Z" fill="#FFD803"/>
<path d="M349.606 36.6667C349.606 37.315 349.347 37.9368 348.886 38.3952C348.425 38.8536 347.8 39.1111 347.149 39.1111C346.497 39.1111 345.872 38.8536 345.412 38.3952C344.951 37.9368 344.692 37.315 344.692 36.6667C344.692 36.0184 344.951 35.3967 345.412 34.9382C345.872 34.4798 346.497 34.2222 347.149 34.2222C347.8 34.2222 348.425 34.4798 348.886 34.9382C349.347 35.3967 349.606 36.0184 349.606 36.6667Z" fill="#FFD803"/>
<path d="M349.606 43.5112C349.606 44.1595 349.347 44.7813 348.886 45.2397C348.425 45.6981 347.8 45.9556 347.149 45.9556C346.497 45.9556 345.872 45.6981 345.412 45.2397C344.951 44.7813 344.692 44.1595 344.692 43.5112C344.692 42.8628 344.951 42.2412 345.412 41.7827C345.872 41.3243 346.497 41.0667 347.149 41.0667C347.8 41.0667 348.425 41.3243 348.886 41.7827C349.347 42.2412 349.606 42.8628 349.606 43.5112Z" fill="#FFD803"/>
<path d="M349.606 50.3556C349.606 51.0039 349.347 51.6257 348.886 52.0841C348.425 52.5425 347.8 52.8 347.149 52.8C346.497 52.8 345.872 52.5425 345.412 52.0841C344.951 51.6257 344.692 51.0039 344.692 50.3556C344.692 49.7073 344.951 49.0856 345.412 48.6271C345.872 48.1687 346.497 47.9111 347.149 47.9111C347.8 47.9111 348.425 48.1687 348.886 48.6271C349.347 49.0856 349.606 49.7073 349.606 50.3556Z" fill="#FFD803"/>
<path d="M349.606 57.1998C349.606 57.8482 349.347 58.47 348.886 58.9284C348.425 59.3868 347.8 59.6443 347.149 59.6443C346.497 59.6443 345.872 59.3868 345.412 58.9284C344.951 58.47 344.692 57.8482 344.692 57.1998C344.692 56.5516 344.951 55.9298 345.412 55.4714C345.872 55.013 346.497 54.7555 347.149 54.7555C347.8 54.7555 348.425 55.013 348.886 55.4714C349.347 55.9298 349.606 56.5516 349.606 57.1998Z" fill="#FFD803"/>
<path d="M349.606 64.0444C349.606 64.6927 349.347 65.3145 348.886 65.7729C348.425 66.2313 347.8 66.4888 347.149 66.4888C346.497 66.4888 345.872 66.2313 345.412 65.7729C344.951 65.3145 344.692 64.6927 344.692 64.0444C344.692 63.3961 344.951 62.7744 345.412 62.316C345.872 61.8575 346.497 61.5999 347.149 61.5999C347.8 61.5999 348.425 61.8575 348.886 62.316C349.347 62.7744 349.606 63.3961 349.606 64.0444Z" fill="#FFD803"/>
<path d="M349.606 70.8888C349.606 71.5371 349.347 72.1589 348.886 72.6173C348.425 73.0757 347.8 73.3332 347.149 73.3332C346.497 73.3332 345.872 73.0757 345.412 72.6173C344.951 72.1589 344.692 71.5371 344.692 70.8888C344.692 70.2405 344.951 69.6188 345.412 69.1604C345.872 68.7019 346.497 68.4443 347.149 68.4443C347.8 68.4443 348.425 68.7019 348.886 69.1604C349.347 69.6188 349.606 70.2405 349.606 70.8888Z" fill="#FFD803"/>
<path d="M349.606 77.7332C349.606 78.3815 349.347 79.0033 348.886 79.4617C348.425 79.9201 347.8 80.1776 347.149 80.1776C346.497 80.1776 345.872 79.9201 345.412 79.4617C344.951 79.0033 344.692 78.3815 344.692 77.7332C344.692 77.0849 344.951 76.4632 345.412 76.0048C345.872 75.5463 346.497 75.2887 347.149 75.2887C347.8 75.2887 348.425 75.5463 348.886 76.0048C349.347 76.4632 349.606 77.0849 349.606 77.7332Z" fill="#FFD803"/>
<path d="M349.606 84.5778C349.606 85.2261 349.347 85.8478 348.886 86.3062C348.425 86.7646 347.8 87.0222 347.149 87.0222C346.497 87.0222 345.872 86.7646 345.412 86.3062C344.951 85.8478 344.692 85.2261 344.692 84.5778C344.692 84.2568 344.756 83.9388 344.879 83.6423C345.003 83.3457 345.184 83.0762 345.412 82.8493C345.64 82.6223 345.911 82.4422 346.209 82.3193C346.507 82.1965 346.826 82.1332 347.149 82.1332C347.471 82.1332 347.791 82.1965 348.089 82.3193C348.387 82.4422 348.658 82.6223 348.886 82.8493C349.114 83.0762 349.295 83.3457 349.419 83.6423C349.542 83.9388 349.606 84.2568 349.606 84.5778Z" fill="#FFD803"/>
<path d="M349.606 91.4222C349.606 92.0705 349.347 92.6922 348.886 93.1506C348.425 93.609 347.8 93.8666 347.149 93.8666C346.497 93.8666 345.872 93.609 345.412 93.1506C344.951 92.6922 344.692 92.0705 344.692 91.4222C344.692 90.7739 344.951 90.1521 345.412 89.6936C345.872 89.2352 346.497 88.9777 347.149 88.9777C347.8 88.9777 348.425 89.2352 348.886 89.6936C349.347 90.1521 349.606 90.7739 349.606 91.4222Z" fill="#FFD803"/>
<path d="M349.606 98.2667C349.606 98.915 349.347 99.5367 348.886 99.9951C348.425 100.454 347.8 100.711 347.149 100.711C346.497 100.711 345.872 100.454 345.412 99.9951C344.951 99.5367 344.692 98.915 344.692 98.2667C344.692 97.6184 344.951 96.9966 345.412 96.5381C345.872 96.0797 346.497 95.8222 347.149 95.8222C347.8 95.8222 348.425 96.0797 348.886 96.5381C349.347 96.9966 349.606 97.6184 349.606 98.2667Z" fill="#FFD803"/>
<path d="M349.606 105.111C349.606 105.76 349.347 106.381 348.886 106.84C348.425 107.298 347.8 107.556 347.149 107.556C346.497 107.556 345.872 107.298 345.412 106.84C344.951 106.381 344.692 105.76 344.692 105.111C344.692 104.79 344.756 104.472 344.879 104.176C345.003 103.879 345.183 103.61 345.412 103.383C345.64 103.156 345.911 102.976 346.209 102.853C346.507 102.73 346.826 102.667 347.149 102.667C347.472 102.667 347.791 102.73 348.089 102.853C348.387 102.976 348.658 103.156 348.886 103.383C349.114 103.61 349.295 103.879 349.419 104.176C349.542 104.472 349.606 104.79 349.606 105.111Z" fill="#FFD803"/>
<path d="M349.606 111.956C349.606 112.604 349.347 113.226 348.886 113.684C348.425 114.143 347.8 114.4 347.149 114.4C346.497 114.4 345.872 114.143 345.412 113.684C344.951 113.226 344.692 112.604 344.692 111.956C344.692 111.307 344.951 110.686 345.412 110.227C345.872 109.769 346.497 109.511 347.149 109.511C347.8 109.511 348.425 109.769 348.886 110.227C349.347 110.686 349.606 111.307 349.606 111.956Z" fill="#FFD803"/>
<path d="M349.606 118.8C349.606 119.448 349.347 120.07 348.886 120.529C348.425 120.987 347.8 121.245 347.149 121.245C346.497 121.245 345.872 120.987 345.412 120.529C344.951 120.07 344.692 119.448 344.692 118.8C344.692 118.152 344.951 117.53 345.412 117.072C345.872 116.613 346.497 116.356 347.149 116.356C347.8 116.356 348.425 116.613 348.886 117.072C349.347 117.53 349.606 118.152 349.606 118.8Z" fill="#FFD803"/>
<path d="M349.606 125.644C349.606 126.293 349.347 126.915 348.886 127.373C348.425 127.831 347.8 128.089 347.149 128.089C346.497 128.089 345.872 127.831 345.412 127.373C344.951 126.915 344.692 126.293 344.692 125.644C344.692 124.996 344.951 124.374 345.412 123.916C345.872 123.458 346.497 123.2 347.149 123.2C347.8 123.2 348.425 123.458 348.886 123.916C349.347 124.374 349.606 124.996 349.606 125.644Z" fill="#FFD803"/>
<path d="M349.606 132.489C349.606 133.137 349.347 133.759 348.886 134.218C348.425 134.676 347.8 134.933 347.149 134.933C346.497 134.933 345.872 134.676 345.412 134.218C344.951 133.759 344.692 133.137 344.692 132.489C344.692 131.841 344.951 131.219 345.412 130.76C345.872 130.302 346.497 130.045 347.149 130.045C347.8 130.045 348.425 130.302 348.886 130.76C349.347 131.219 349.606 131.841 349.606 132.489Z" fill="#FFD803"/>
<path d="M356.484 16.1333C356.484 16.7817 356.226 17.4035 355.765 17.8619C355.304 18.3203 354.679 18.5778 354.028 18.5778C353.376 18.5778 352.751 18.3203 352.291 17.8619C351.83 17.4035 351.571 16.7817 351.571 16.1333C351.571 15.485 351.83 14.8634 352.291 14.4049C352.751 13.9465 353.376 13.6889 354.028 13.6889C354.679 13.6889 355.304 13.9465 355.765 14.4049C356.226 14.8634 356.484 15.485 356.484 16.1333Z" fill="#FFD803"/>
<path d="M356.484 22.9778C356.484 23.6261 356.226 24.2479 355.765 24.7063C355.304 25.1647 354.679 25.4222 354.028 25.4222C353.376 25.4222 352.751 25.1647 352.291 24.7063C351.83 24.2479 351.571 23.6261 351.571 22.9778C351.571 22.3294 351.83 21.7078 352.291 21.2493C352.751 20.7909 353.376 20.5333 354.028 20.5333C354.679 20.5333 355.304 20.7909 355.765 21.2493C356.226 21.7078 356.484 22.3294 356.484 22.9778Z" fill="#FFD803"/>
<path d="M356.484 29.8222C356.484 30.4705 356.226 31.0923 355.765 31.5507C355.304 32.0091 354.679 32.2666 354.028 32.2666C353.376 32.2666 352.751 32.0091 352.291 31.5507C351.83 31.0923 351.571 30.4705 351.571 29.8222C351.571 29.1738 351.83 28.5522 352.291 28.0937C352.751 27.6353 353.376 27.3777 354.028 27.3777C354.679 27.3777 355.304 27.6353 355.765 28.0937C356.226 28.5522 356.484 29.1738 356.484 29.8222Z" fill="#FFD803"/>
<path d="M356.484 36.6667C356.484 37.315 356.226 37.9368 355.765 38.3952C355.304 38.8536 354.679 39.1111 354.028 39.1111C353.376 39.1111 352.751 38.8536 352.291 38.3952C351.83 37.9368 351.571 37.315 351.571 36.6667C351.571 36.0184 351.83 35.3967 352.291 34.9382C352.751 34.4798 353.376 34.2222 354.028 34.2222C354.679 34.2222 355.304 34.4798 355.765 34.9382C356.226 35.3967 356.484 36.0184 356.484 36.6667Z" fill="#FFD803"/>
<path d="M356.484 43.5112C356.484 44.1595 356.226 44.7813 355.765 45.2397C355.304 45.6981 354.679 45.9556 354.028 45.9556C353.376 45.9556 352.751 45.6981 352.291 45.2397C351.83 44.7813 351.571 44.1595 351.571 43.5112C351.571 42.8628 351.83 42.2412 352.291 41.7827C352.751 41.3243 353.376 41.0667 354.028 41.0667C354.679 41.0667 355.304 41.3243 355.765 41.7827C356.226 42.2412 356.484 42.8628 356.484 43.5112Z" fill="#FFD803"/>
<path d="M356.484 50.3556C356.484 51.0039 356.226 51.6257 355.765 52.0841C355.304 52.5425 354.679 52.8 354.028 52.8C353.376 52.8 352.751 52.5425 352.291 52.0841C351.83 51.6257 351.571 51.0039 351.571 50.3556C351.571 49.7073 351.83 49.0856 352.291 48.6271C352.751 48.1687 353.376 47.9111 354.028 47.9111C354.679 47.9111 355.304 48.1687 355.765 48.6271C356.226 49.0856 356.484 49.7073 356.484 50.3556Z" fill="#FFD803"/>
<path d="M356.484 57.1998C356.484 57.8482 356.226 58.47 355.765 58.9284C355.304 59.3868 354.679 59.6443 354.028 59.6443C353.376 59.6443 352.751 59.3868 352.291 58.9284C351.83 58.47 351.571 57.8482 351.571 57.1998C351.571 56.5516 351.83 55.9298 352.291 55.4714C352.751 55.013 353.376 54.7555 354.028 54.7555C354.679 54.7555 355.304 55.013 355.765 55.4714C356.226 55.9298 356.484 56.5516 356.484 57.1998Z" fill="#FFD803"/>
<path d="M356.484 64.0444C356.484 64.6927 356.226 65.3145 355.765 65.7729C355.304 66.2313 354.679 66.4888 354.028 66.4888C353.376 66.4888 352.751 66.2313 352.291 65.7729C351.83 65.3145 351.571 64.6927 351.571 64.0444C351.571 63.3961 351.83 62.7744 352.291 62.316C352.751 61.8575 353.376 61.5999 354.028 61.5999C354.679 61.5999 355.304 61.8575 355.765 62.316C356.226 62.7744 356.484 63.3961 356.484 64.0444Z" fill="#FFD803"/>
<path d="M356.484 70.8888C356.484 71.5371 356.226 72.1589 355.765 72.6173C355.304 73.0757 354.679 73.3332 354.028 73.3332C353.376 73.3332 352.751 73.0757 352.291 72.6173C351.83 72.1589 351.571 71.5371 351.571 70.8888C351.571 70.2405 351.83 69.6188 352.291 69.1604C352.751 68.7019 353.376 68.4443 354.028 68.4443C354.679 68.4443 355.304 68.7019 355.765 69.1604C356.226 69.6188 356.484 70.2405 356.484 70.8888Z" fill="#FFD803"/>
<path d="M356.484 77.7332C356.484 78.3815 356.226 79.0033 355.765 79.4617C355.304 79.9201 354.679 80.1776 354.028 80.1776C353.376 80.1776 352.751 79.9201 352.291 79.4617C351.83 79.0033 351.571 78.3815 351.571 77.7332C351.571 77.0849 351.83 76.4632 352.291 76.0048C352.751 75.5463 353.376 75.2887 354.028 75.2887C354.679 75.2887 355.304 75.5463 355.765 76.0048C356.226 76.4632 356.484 77.0849 356.484 77.7332Z" fill="#FFD803"/>
<path d="M356.484 84.5778C356.484 85.2261 356.226 85.8478 355.765 86.3062C355.304 86.7646 354.679 87.0222 354.028 87.0222C353.376 87.0222 352.751 86.7646 352.291 86.3062C351.83 85.8478 351.571 85.2261 351.571 84.5778C351.571 84.2568 351.635 83.9388 351.758 83.6423C351.882 83.3457 352.062 83.0762 352.291 82.8493C352.519 82.6223 352.79 82.4422 353.088 82.3193C353.386 82.1965 353.705 82.1332 354.028 82.1332C354.35 82.1332 354.67 82.1965 354.968 82.3193C355.266 82.4422 355.537 82.6223 355.765 82.8493C355.993 83.0762 356.174 83.3457 356.297 83.6423C356.421 83.9388 356.484 84.2568 356.484 84.5778Z" fill="#FFD803"/>
<path d="M356.484 91.4222C356.484 92.0705 356.226 92.6922 355.765 93.1506C355.304 93.609 354.679 93.8666 354.028 93.8666C353.376 93.8666 352.751 93.609 352.291 93.1506C351.83 92.6922 351.571 92.0705 351.571 91.4222C351.571 90.7739 351.83 90.1521 352.291 89.6936C352.751 89.2352 353.376 88.9777 354.028 88.9777C354.679 88.9777 355.304 89.2352 355.765 89.6936C356.226 90.1521 356.484 90.7739 356.484 91.4222Z" fill="#FFD803"/>
<path d="M356.484 98.2667C356.484 98.915 356.226 99.5367 355.765 99.9951C355.304 100.454 354.679 100.711 354.028 100.711C353.376 100.711 352.751 100.454 352.291 99.9951C351.83 99.5367 351.571 98.915 351.571 98.2667C351.571 97.6184 351.83 96.9966 352.291 96.5381C352.751 96.0797 353.376 95.8222 354.028 95.8222C354.679 95.8222 355.304 96.0797 355.765 96.5381C356.226 96.9966 356.484 97.6184 356.484 98.2667Z" fill="#FFD803"/>
<path d="M356.484 105.111C356.484 105.76 356.226 106.381 355.765 106.84C355.304 107.298 354.679 107.556 354.028 107.556C353.376 107.556 352.751 107.298 352.291 106.84C351.83 106.381 351.571 105.76 351.571 105.111C351.571 104.79 351.635 104.472 351.758 104.176C351.881 103.879 352.062 103.61 352.291 103.383C352.519 103.156 352.789 102.976 353.088 102.853C353.386 102.73 353.705 102.667 354.028 102.667C354.35 102.667 354.67 102.73 354.968 102.853C355.266 102.976 355.537 103.156 355.765 103.383C355.993 103.61 356.174 103.879 356.298 104.176C356.421 104.472 356.484 104.79 356.484 105.111Z" fill="#FFD803"/>
<path d="M356.484 111.956C356.484 112.604 356.226 113.226 355.765 113.684C355.304 114.143 354.679 114.4 354.028 114.4C353.376 114.4 352.751 114.143 352.291 113.684C351.83 113.226 351.571 112.604 351.571 111.956C351.571 111.307 351.83 110.686 352.291 110.227C352.751 109.769 353.376 109.511 354.028 109.511C354.679 109.511 355.304 109.769 355.765 110.227C356.226 110.686 356.484 111.307 356.484 111.956Z" fill="#FFD803"/>
<path d="M356.484 118.8C356.484 119.448 356.226 120.07 355.765 120.529C355.304 120.987 354.679 121.245 354.028 121.245C353.376 121.245 352.751 120.987 352.291 120.529C351.83 120.07 351.571 119.448 351.571 118.8C351.571 118.152 351.83 117.53 352.291 117.072C352.751 116.613 353.376 116.356 354.028 116.356C354.679 116.356 355.304 116.613 355.765 117.072C356.226 117.53 356.484 118.152 356.484 118.8Z" fill="#FFD803"/>
<path d="M356.484 125.644C356.484 126.293 356.226 126.915 355.765 127.373C355.304 127.831 354.679 128.089 354.028 128.089C353.376 128.089 352.751 127.831 352.291 127.373C351.83 126.915 351.571 126.293 351.571 125.644C351.571 124.996 351.83 124.374 352.291 123.916C352.751 123.458 353.376 123.2 354.028 123.2C354.679 123.2 355.304 123.458 355.765 123.916C356.226 124.374 356.484 124.996 356.484 125.644Z" fill="#FFD803"/>
<path d="M363.363 2.44444C363.363 3.09275 363.104 3.71456 362.644 4.17298C362.183 4.6314 361.558 4.88889 360.906 4.88889C360.255 4.88889 359.63 4.6314 359.169 4.17298C358.709 3.71456 358.45 3.09275 358.45 2.44444C358.45 1.79614 358.709 1.17445 359.169 0.716026C359.63 0.257604 360.255 0 360.906 0C361.558 0 362.183 0.257604 362.644 0.716026C363.104 1.17445 363.363 1.79614 363.363 2.44444Z" fill="#FFD803"/>
<path d="M363.363 9.28894C363.363 9.93725 363.104 10.5591 362.644 11.0175C362.183 11.4759 361.558 11.7334 360.906 11.7334C360.255 11.7334 359.63 11.4759 359.169 11.0175C358.709 10.5591 358.45 9.93725 358.45 9.28894C358.45 8.64063 358.709 8.01895 359.169 7.56052C359.63 7.1021 360.255 6.8445 360.906 6.8445C361.558 6.8445 362.183 7.1021 362.644 7.56052C363.104 8.01895 363.363 8.64063 363.363 9.28894Z" fill="#FFD803"/>
<path d="M363.363 16.1333C363.363 16.7817 363.104 17.4035 362.644 17.8619C362.183 18.3203 361.558 18.5778 360.906 18.5778C360.255 18.5778 359.63 18.3203 359.169 17.8619C358.709 17.4035 358.45 16.7817 358.45 16.1333C358.45 15.485 358.709 14.8634 359.169 14.4049C359.63 13.9465 360.255 13.6889 360.906 13.6889C361.558 13.6889 362.183 13.9465 362.644 14.4049C363.104 14.8634 363.363 15.485 363.363 16.1333Z" fill="#FFD803"/>
<path d="M363.363 22.9778C363.363 23.6261 363.104 24.2479 362.644 24.7063C362.183 25.1647 361.558 25.4222 360.906 25.4222C360.255 25.4222 359.63 25.1647 359.169 24.7063C358.709 24.2479 358.45 23.6261 358.45 22.9778C358.45 22.3294 358.709 21.7078 359.169 21.2493C359.63 20.7909 360.255 20.5333 360.906 20.5333C361.558 20.5333 362.183 20.7909 362.644 21.2493C363.104 21.7078 363.363 22.3294 363.363 22.9778Z" fill="#FFD803"/>
<path d="M363.363 29.8222C363.363 30.4705 363.104 31.0923 362.644 31.5507C362.183 32.0091 361.558 32.2666 360.906 32.2666C360.255 32.2666 359.63 32.0091 359.169 31.5507C358.709 31.0923 358.45 30.4705 358.45 29.8222C358.45 29.1738 358.709 28.5522 359.169 28.0937C359.63 27.6353 360.255 27.3777 360.906 27.3777C361.558 27.3777 362.183 27.6353 362.644 28.0937C363.104 28.5522 363.363 29.1738 363.363 29.8222Z" fill="#FFD803"/>
<path d="M363.363 36.6667C363.363 37.315 363.104 37.9368 362.644 38.3952C362.183 38.8536 361.558 39.1111 360.906 39.1111C360.255 39.1111 359.63 38.8536 359.169 38.3952C358.709 37.9368 358.45 37.315 358.45 36.6667C358.45 36.0184 358.709 35.3967 359.169 34.9382C359.63 34.4798 360.255 34.2222 360.906 34.2222C361.558 34.2222 362.183 34.4798 362.644 34.9382C363.104 35.3967 363.363 36.0184 363.363 36.6667Z" fill="#FFD803"/>
<path d="M363.363 43.5112C363.363 44.1595 363.104 44.7813 362.644 45.2397C362.183 45.6981 361.558 45.9556 360.906 45.9556C360.255 45.9556 359.63 45.6981 359.169 45.2397C358.709 44.7813 358.45 44.1595 358.45 43.5112C358.45 42.8628 358.709 42.2412 359.169 41.7827C359.63 41.3243 360.255 41.0667 360.906 41.0667C361.558 41.0667 362.183 41.3243 362.644 41.7827C363.104 42.2412 363.363 42.8628 363.363 43.5112Z" fill="#FFD803"/>
<path d="M363.363 50.3556C363.363 51.0039 363.104 51.6257 362.644 52.0841C362.183 52.5425 361.558 52.8 360.906 52.8C360.255 52.8 359.63 52.5425 359.169 52.0841C358.709 51.6257 358.45 51.0039 358.45 50.3556C358.45 49.7073 358.709 49.0856 359.169 48.6271C359.63 48.1687 360.255 47.9111 360.906 47.9111C361.558 47.9111 362.183 48.1687 362.644 48.6271C363.104 49.0856 363.363 49.7073 363.363 50.3556Z" fill="#FFD803"/>
<path d="M363.363 57.1998C363.363 57.8482 363.104 58.47 362.644 58.9284C362.183 59.3868 361.558 59.6443 360.906 59.6443C360.255 59.6443 359.63 59.3868 359.169 58.9284C358.709 58.47 358.45 57.8482 358.45 57.1998C358.45 56.5516 358.709 55.9298 359.169 55.4714C359.63 55.013 360.255 54.7555 360.906 54.7555C361.558 54.7555 362.183 55.013 362.644 55.4714C363.104 55.9298 363.363 56.5516 363.363 57.1998Z" fill="#FFD803"/>
<path d="M363.363 64.0444C363.363 64.6927 363.104 65.3145 362.644 65.7729C362.183 66.2313 361.558 66.4888 360.906 66.4888C360.255 66.4888 359.63 66.2313 359.169 65.7729C358.709 65.3145 358.45 64.6927 358.45 64.0444C358.45 63.3961 358.709 62.7744 359.169 62.316C359.63 61.8575 360.255 61.5999 360.906 61.5999C361.558 61.5999 362.183 61.8575 362.644 62.316C363.104 62.7744 363.363 63.3961 363.363 64.0444Z" fill="#FFD803"/>
<path d="M363.363 70.8888C363.363 71.5371 363.104 72.1589 362.644 72.6173C362.183 73.0757 361.558 73.3332 360.906 73.3332C360.255 73.3332 359.63 73.0757 359.169 72.6173C358.709 72.1589 358.45 71.5371 358.45 70.8888C358.45 70.2405 358.709 69.6188 359.169 69.1604C359.63 68.7019 360.255 68.4443 360.906 68.4443C361.558 68.4443 362.183 68.7019 362.644 69.1604C363.104 69.6188 363.363 70.2405 363.363 70.8888Z" fill="#FFD803"/>
<path d="M363.363 77.7332C363.363 78.3815 363.104 79.0033 362.644 79.4617C362.183 79.9201 361.558 80.1776 360.906 80.1776C360.255 80.1776 359.63 79.9201 359.169 79.4617C358.709 79.0033 358.45 78.3815 358.45 77.7332C358.45 77.0849 358.709 76.4632 359.169 76.0048C359.63 75.5463 360.255 75.2887 360.906 75.2887C361.558 75.2887 362.183 75.5463 362.644 76.0048C363.104 76.4632 363.363 77.0849 363.363 77.7332Z" fill="#FFD803"/>
<path d="M363.363 84.5778C363.363 85.2261 363.104 85.8478 362.644 86.3062C362.183 86.7646 361.558 87.0222 360.906 87.0222C360.255 87.0222 359.63 86.7646 359.169 86.3062C358.709 85.8478 358.45 85.2261 358.45 84.5778C358.45 84.2568 358.513 83.9388 358.637 83.6423C358.76 83.3457 358.941 83.0762 359.169 82.8493C359.397 82.6223 359.668 82.4422 359.966 82.3193C360.264 82.1965 360.584 82.1332 360.906 82.1332C361.229 82.1332 361.549 82.1965 361.847 82.3193C362.145 82.4422 362.415 82.6223 362.644 82.8493C362.872 83.0762 363.053 83.3457 363.176 83.6423C363.3 83.9388 363.363 84.2568 363.363 84.5778Z" fill="#FFD803"/>
<path d="M363.363 91.4222C363.363 92.0705 363.104 92.6922 362.644 93.1506C362.183 93.609 361.558 93.8666 360.906 93.8666C360.255 93.8666 359.63 93.609 359.169 93.1506C358.709 92.6922 358.45 92.0705 358.45 91.4222C358.45 90.7739 358.709 90.1521 359.169 89.6936C359.63 89.2352 360.255 88.9777 360.906 88.9777C361.558 88.9777 362.183 89.2352 362.644 89.6936C363.104 90.1521 363.363 90.7739 363.363 91.4222Z" fill="#FFD803"/>
<path d="M363.363 98.2667C363.363 98.915 363.104 99.5367 362.644 99.9951C362.183 100.454 361.558 100.711 360.906 100.711C360.255 100.711 359.63 100.454 359.169 99.9951C358.709 99.5367 358.45 98.915 358.45 98.2667C358.45 97.6184 358.709 96.9966 359.169 96.5381C359.63 96.0797 360.255 95.8222 360.906 95.8222C361.558 95.8222 362.183 96.0797 362.644 96.5381C363.104 96.9966 363.363 97.6184 363.363 98.2667Z" fill="#FFD803"/>
<path d="M363.363 105.111C363.363 105.76 363.104 106.381 362.644 106.84C362.183 107.298 361.558 107.556 360.906 107.556C360.255 107.556 359.63 107.298 359.169 106.84C358.709 106.381 358.45 105.76 358.45 105.111C358.45 104.79 358.513 104.472 358.637 104.176C358.76 103.879 358.941 103.61 359.169 103.383C359.397 103.156 359.668 102.976 359.966 102.853C360.264 102.73 360.584 102.667 360.906 102.667C361.229 102.667 361.549 102.73 361.847 102.853C362.145 102.976 362.416 103.156 362.644 103.383C362.872 103.61 363.053 103.879 363.176 104.176C363.3 104.472 363.363 104.79 363.363 105.111Z" fill="#FFD803"/>
<path d="M363.363 111.956C363.363 112.604 363.104 113.226 362.644 113.684C362.183 114.143 361.558 114.4 360.906 114.4C360.255 114.4 359.63 114.143 359.169 113.684C358.709 113.226 358.45 112.604 358.45 111.956C358.45 111.307 358.709 110.686 359.169 110.227C359.63 109.769 360.255 109.511 360.906 109.511C361.558 109.511 362.183 109.769 362.644 110.227C363.104 110.686 363.363 111.307 363.363 111.956Z" fill="#FFD803"/>
<path d="M370.242 2.44444C370.242 3.09275 369.983 3.71456 369.522 4.17298C369.062 4.6314 368.437 4.88889 367.785 4.88889C367.134 4.88889 366.509 4.6314 366.048 4.17298C365.587 3.71456 365.328 3.09275 365.328 2.44444C365.328 1.79614 365.587 1.17445 366.048 0.716026C366.509 0.257604 367.134 0 367.785 0C368.437 0 369.062 0.257604 369.522 0.716026C369.983 1.17445 370.242 1.79614 370.242 2.44444Z" fill="#FFD803"/>
<path d="M370.242 9.28894C370.242 9.93725 369.983 10.5591 369.522 11.0175C369.062 11.4759 368.437 11.7334 367.785 11.7334C367.134 11.7334 366.509 11.4759 366.048 11.0175C365.587 10.5591 365.328 9.93725 365.328 9.28894C365.328 8.64063 365.587 8.01895 366.048 7.56052C366.509 7.1021 367.134 6.8445 367.785 6.8445C368.437 6.8445 369.062 7.1021 369.522 7.56052C369.983 8.01895 370.242 8.64063 370.242 9.28894Z" fill="#FFD803"/>
<path d="M370.242 16.1333C370.242 16.7817 369.983 17.4035 369.522 17.8619C369.062 18.3203 368.437 18.5778 367.785 18.5778C367.134 18.5778 366.509 18.3203 366.048 17.8619C365.587 17.4035 365.328 16.7817 365.328 16.1333C365.328 15.485 365.587 14.8634 366.048 14.4049C366.509 13.9465 367.134 13.6889 367.785 13.6889C368.437 13.6889 369.062 13.9465 369.522 14.4049C369.983 14.8634 370.242 15.485 370.242 16.1333Z" fill="#FFD803"/>
<path d="M370.242 22.9778C370.242 23.6261 369.983 24.2479 369.522 24.7063C369.062 25.1647 368.437 25.4222 367.785 25.4222C367.134 25.4222 366.509 25.1647 366.048 24.7063C365.587 24.2479 365.328 23.6261 365.328 22.9778C365.328 22.3294 365.587 21.7078 366.048 21.2493C366.509 20.7909 367.134 20.5333 367.785 20.5333C368.437 20.5333 369.062 20.7909 369.522 21.2493C369.983 21.7078 370.242 22.3294 370.242 22.9778Z" fill="#FFD803"/>
<path d="M370.242 29.8222C370.242 30.4705 369.983 31.0923 369.522 31.5507C369.062 32.0091 368.437 32.2666 367.785 32.2666C367.134 32.2666 366.509 32.0091 366.048 31.5507C365.587 31.0923 365.328 30.4705 365.328 29.8222C365.328 29.1738 365.587 28.5522 366.048 28.0937C366.509 27.6353 367.134 27.3777 367.785 27.3777C368.437 27.3777 369.062 27.6353 369.522 28.0937C369.983 28.5522 370.242 29.1738 370.242 29.8222Z" fill="#FFD803"/>
<path d="M370.242 36.6667C370.242 37.315 369.983 37.9368 369.522 38.3952C369.062 38.8536 368.437 39.1111 367.785 39.1111C367.134 39.1111 366.509 38.8536 366.048 38.3952C365.587 37.9368 365.328 37.315 365.328 36.6667C365.328 36.0184 365.587 35.3967 366.048 34.9382C366.509 34.4798 367.134 34.2222 367.785 34.2222C368.437 34.2222 369.062 34.4798 369.522 34.9382C369.983 35.3967 370.242 36.0184 370.242 36.6667Z" fill="#FFD803"/>
<path d="M370.242 43.5112C370.242 44.1595 369.983 44.7813 369.522 45.2397C369.062 45.6981 368.437 45.9556 367.785 45.9556C367.134 45.9556 366.509 45.6981 366.048 45.2397C365.587 44.7813 365.328 44.1595 365.328 43.5112C365.328 42.8628 365.587 42.2412 366.048 41.7827C366.509 41.3243 367.134 41.0667 367.785 41.0667C368.437 41.0667 369.062 41.3243 369.522 41.7827C369.983 42.2412 370.242 42.8628 370.242 43.5112Z" fill="#FFD803"/>
<path d="M370.242 50.3556C370.242 51.0039 369.983 51.6257 369.522 52.0841C369.062 52.5425 368.437 52.8 367.785 52.8C367.134 52.8 366.509 52.5425 366.048 52.0841C365.587 51.6257 365.328 51.0039 365.328 50.3556C365.328 49.7073 365.587 49.0856 366.048 48.6271C366.509 48.1687 367.134 47.9111 367.785 47.9111C368.437 47.9111 369.062 48.1687 369.522 48.6271C369.983 49.0856 370.242 49.7073 370.242 50.3556Z" fill="#FFD803"/>
<path d="M370.242 57.1998C370.242 57.8482 369.983 58.47 369.522 58.9284C369.062 59.3868 368.437 59.6443 367.785 59.6443C367.134 59.6443 366.509 59.3868 366.048 58.9284C365.587 58.47 365.328 57.8482 365.328 57.1998C365.328 56.5516 365.587 55.9298 366.048 55.4714C366.509 55.013 367.134 54.7555 367.785 54.7555C368.437 54.7555 369.062 55.013 369.522 55.4714C369.983 55.9298 370.242 56.5516 370.242 57.1998Z" fill="#FFD803"/>
<path d="M370.242 64.0444C370.242 64.6927 369.983 65.3145 369.522 65.7729C369.062 66.2313 368.437 66.4888 367.785 66.4888C367.134 66.4888 366.509 66.2313 366.048 65.7729C365.587 65.3145 365.328 64.6927 365.328 64.0444C365.328 63.3961 365.587 62.7744 366.048 62.316C366.509 61.8575 367.134 61.5999 367.785 61.5999C368.437 61.5999 369.062 61.8575 369.522 62.316C369.983 62.7744 370.242 63.3961 370.242 64.0444Z" fill="#FFD803"/>
<path d="M370.242 70.8888C370.242 71.5371 369.983 72.1589 369.522 72.6173C369.062 73.0757 368.437 73.3332 367.785 73.3332C367.134 73.3332 366.509 73.0757 366.048 72.6173C365.587 72.1589 365.328 71.5371 365.328 70.8888C365.328 70.2405 365.587 69.6188 366.048 69.1604C366.509 68.7019 367.134 68.4443 367.785 68.4443C368.437 68.4443 369.062 68.7019 369.522 69.1604C369.983 69.6188 370.242 70.2405 370.242 70.8888Z" fill="#FFD803"/>
<path d="M370.242 77.7332C370.242 78.3815 369.983 79.0033 369.522 79.4617C369.062 79.9201 368.437 80.1776 367.785 80.1776C367.134 80.1776 366.509 79.9201 366.048 79.4617C365.587 79.0033 365.328 78.3815 365.328 77.7332C365.328 77.0849 365.587 76.4632 366.048 76.0048C366.509 75.5463 367.134 75.2887 367.785 75.2887C368.437 75.2887 369.062 75.5463 369.522 76.0048C369.983 76.4632 370.242 77.0849 370.242 77.7332Z" fill="#FFD803"/>
<path d="M370.242 84.5778C370.242 85.2261 369.983 85.8478 369.522 86.3062C369.062 86.7646 368.437 87.0222 367.785 87.0222C367.134 87.0222 366.509 86.7646 366.048 86.3062C365.587 85.8478 365.328 85.2261 365.328 84.5778C365.328 84.2568 365.392 83.9388 365.515 83.6423C365.639 83.3457 365.82 83.0762 366.048 82.8493C366.276 82.6223 366.547 82.4422 366.845 82.3193C367.143 82.1965 367.462 82.1332 367.785 82.1332C368.108 82.1332 368.427 82.1965 368.725 82.3193C369.023 82.4422 369.294 82.6223 369.522 82.8493C369.75 83.0762 369.931 83.3457 370.055 83.6423C370.178 83.9388 370.242 84.2568 370.242 84.5778Z" fill="#FFD803"/>
<path d="M377.121 9.28894C377.121 9.93725 376.862 10.5591 376.401 11.0175C375.941 11.4759 375.316 11.7334 374.664 11.7334C374.013 11.7334 373.388 11.4759 372.927 11.0175C372.466 10.5591 372.208 9.93725 372.208 9.28894C372.208 8.64063 372.466 8.01895 372.927 7.56052C373.388 7.1021 374.013 6.8445 374.664 6.8445C375.316 6.8445 375.941 7.1021 376.401 7.56052C376.862 8.01895 377.121 8.64063 377.121 9.28894Z" fill="#FFD803"/>
<path d="M377.121 16.1333C377.121 16.7817 376.862 17.4035 376.401 17.8619C375.941 18.3203 375.316 18.5778 374.664 18.5778C374.013 18.5778 373.388 18.3203 372.927 17.8619C372.466 17.4035 372.208 16.7817 372.208 16.1333C372.208 15.485 372.466 14.8634 372.927 14.4049C373.388 13.9465 374.013 13.6889 374.664 13.6889C375.316 13.6889 375.941 13.9465 376.401 14.4049C376.862 14.8634 377.121 15.485 377.121 16.1333Z" fill="#FFD803"/>
<path d="M377.121 22.9778C377.121 23.6261 376.862 24.2479 376.401 24.7063C375.941 25.1647 375.316 25.4222 374.664 25.4222C374.013 25.4222 373.388 25.1647 372.927 24.7063C372.466 24.2479 372.208 23.6261 372.208 22.9778C372.208 22.3294 372.466 21.7078 372.927 21.2493C373.388 20.7909 374.013 20.5333 374.664 20.5333C375.316 20.5333 375.941 20.7909 376.401 21.2493C376.862 21.7078 377.121 22.3294 377.121 22.9778Z" fill="#FFD803"/>
<path d="M377.121 29.8222C377.121 30.4705 376.862 31.0923 376.401 31.5507C375.941 32.0091 375.316 32.2666 374.664 32.2666C374.013 32.2666 373.388 32.0091 372.927 31.5507C372.466 31.0923 372.208 30.4705 372.208 29.8222C372.208 29.1738 372.466 28.5522 372.927 28.0937C373.388 27.6353 374.013 27.3777 374.664 27.3777C375.316 27.3777 375.941 27.6353 376.401 28.0937C376.862 28.5522 377.121 29.1738 377.121 29.8222Z" fill="#FFD803"/>
<path d="M377.121 36.6667C377.121 37.315 376.862 37.9368 376.401 38.3952C375.941 38.8536 375.316 39.1111 374.664 39.1111C374.013 39.1111 373.388 38.8536 372.927 38.3952C372.466 37.9368 372.208 37.315 372.208 36.6667C372.208 36.0184 372.466 35.3967 372.927 34.9382C373.388 34.4798 374.013 34.2222 374.664 34.2222C375.316 34.2222 375.941 34.4798 376.401 34.9382C376.862 35.3967 377.121 36.0184 377.121 36.6667Z" fill="#FFD803"/>
<path d="M377.121 43.5112C377.121 44.1595 376.862 44.7813 376.401 45.2397C375.941 45.6981 375.316 45.9556 374.664 45.9556C374.013 45.9556 373.388 45.6981 372.927 45.2397C372.466 44.7813 372.208 44.1595 372.208 43.5112C372.208 42.8628 372.466 42.2412 372.927 41.7827C373.388 41.3243 374.013 41.0667 374.664 41.0667C375.316 41.0667 375.941 41.3243 376.401 41.7827C376.862 42.2412 377.121 42.8628 377.121 43.5112Z" fill="#FFD803"/>
<path d="M377.121 50.3556C377.121 51.0039 376.862 51.6257 376.401 52.0841C375.941 52.5425 375.316 52.8 374.664 52.8C374.013 52.8 373.388 52.5425 372.927 52.0841C372.466 51.6257 372.208 51.0039 372.208 50.3556C372.208 49.7073 372.466 49.0856 372.927 48.6271C373.388 48.1687 374.013 47.9111 374.664 47.9111C375.316 47.9111 375.941 48.1687 376.401 48.6271C376.862 49.0856 377.121 49.7073 377.121 50.3556Z" fill="#FFD803"/>
<path d="M377.121 57.1998C377.121 57.8482 376.862 58.47 376.401 58.9284C375.941 59.3868 375.316 59.6443 374.664 59.6443C374.013 59.6443 373.388 59.3868 372.927 58.9284C372.466 58.47 372.208 57.8482 372.208 57.1998C372.208 56.5516 372.466 55.9298 372.927 55.4714C373.388 55.013 374.013 54.7555 374.664 54.7555C375.316 54.7555 375.941 55.013 376.401 55.4714C376.862 55.9298 377.121 56.5516 377.121 57.1998Z" fill="#FFD803"/>
<path d="M384 9.28894C384 9.93725 383.741 10.5591 383.28 11.0175C382.82 11.4759 382.195 11.7334 381.543 11.7334C380.892 11.7334 380.267 11.4759 379.806 11.0175C379.345 10.5591 379.086 9.93725 379.086 9.28894C379.086 8.64063 379.345 8.01895 379.806 7.56052C380.267 7.1021 380.892 6.8445 381.543 6.8445C382.195 6.8445 382.82 7.1021 383.28 7.56052C383.741 8.01895 384 8.64063 384 9.28894Z" fill="#FFD803"/>
<path d="M384 16.1333C384 16.7817 383.741 17.4035 383.28 17.8619C382.82 18.3203 382.195 18.5778 381.543 18.5778C380.892 18.5778 380.267 18.3203 379.806 17.8619C379.345 17.4035 379.086 16.7817 379.086 16.1333C379.086 15.485 379.345 14.8634 379.806 14.4049C380.267 13.9465 380.892 13.6889 381.543 13.6889C382.195 13.6889 382.82 13.9465 383.28 14.4049C383.741 14.8634 384 15.485 384 16.1333Z" fill="#FFD803"/>
<path d="M384 22.9778C384 23.6261 383.741 24.2479 383.28 24.7063C382.82 25.1647 382.195 25.4222 381.543 25.4222C380.892 25.4222 380.267 25.1647 379.806 24.7063C379.345 24.2479 379.086 23.6261 379.086 22.9778C379.086 22.3294 379.345 21.7078 379.806 21.2493C380.267 20.7909 380.892 20.5333 381.543 20.5333C382.195 20.5333 382.82 20.7909 383.28 21.2493C383.741 21.7078 384 22.3294 384 22.9778Z" fill="#FFD803"/>
<path d="M384 36.6667C384 37.315 383.741 37.9368 383.28 38.3952C382.82 38.8536 382.195 39.1111 381.543 39.1111C380.892 39.1111 380.267 38.8536 379.806 38.3952C379.345 37.9368 379.086 37.315 379.086 36.6667C379.086 36.0184 379.345 35.3967 379.806 34.9382C380.267 34.4798 380.892 34.2222 381.543 34.2222C382.195 34.2222 382.82 34.4798 383.28 34.9382C383.741 35.3967 384 36.0184 384 36.6667Z" fill="#FFD803"/>
<path d="M384 43.5112C384 44.1595 383.741 44.7813 383.28 45.2397C382.82 45.6981 382.195 45.9556 381.543 45.9556C380.892 45.9556 380.267 45.6981 379.806 45.2397C379.345 44.7813 379.086 44.1595 379.086 43.5112C379.086 42.8628 379.345 42.2412 379.806 41.7827C380.267 41.3243 380.892 41.0667 381.543 41.0667C382.195 41.0667 382.82 41.3243 383.28 41.7827C383.741 42.2412 384 42.8628 384 43.5112Z" fill="#FFD803"/>
</svg>
